<svg xmlns="http://www.w3.org/2000/svg" width="110" height="76" viewBox="0 0 110 76" fill="none">
    <path d="M46.5113 3.43466C45.3005 3.12918 43.3836 4.86027 42.2737 4.9621C55.9952 9.13708 71.4318 13.923 85.4559 17.7925C88.8863 18.709 91.7113 17.9962 94.1327 15.6541C78.4943 11.3773 61.1407 7.50782 46.5113 3.43466ZM45.1996 0.787109H47.3184C48.7309 1.29625 49.1345 2.21271 48.4282 2.92552C65.8827 7.20233 84.3461 11.7846 100.59 15.8578C98.572 17.4871 96.9577 18.9127 95.0408 20.3383C91.9131 20.3383 84.447 20.3383 84.447 20.3383C84.447 20.3383 77.2836 17.8944 73.4497 16.7743C65.8827 14.6358 42.6773 5.77673 39.9532 5.87856C38.4398 5.98039 36.7246 6.89685 35.0095 7.60965C29.6621 9.74806 24.0121 12.2938 19.0684 14.3304C19.2701 14.1267 19.0684 13.5157 19.371 13.4139C20.9853 12.7011 39.247 3.43466 45.1996 0.787109Z" fill="white"/>
    <path d="M105.03 21.6604V29.2976C103.012 29.2976 100.086 29.2976 98.1693 29.2976V31.5378C91.7121 31.5378 84.9523 31.5378 79.1005 31.5378V29.2976H74.6612C73.1478 27.5665 72.1389 25.2244 72.5425 21.5586H105.03V21.6604Z" fill="white"/>
    <path d="M81.7232 32.6602H95.4447C95.4447 33.1693 95.4447 33.6784 95.4447 34.3912C101.599 33.8821 103.92 37.5479 108.056 39.279V41.6211H104.828V39.279C100.893 36.326 95.142 35.9187 89.2902 35.9187C82.833 35.9187 77.4857 36.326 73.8536 39.279V41.6211H70.625C70.625 40.9083 70.625 39.9918 70.625 39.279C74.4589 37.6498 76.5777 34.0858 81.8241 34.2894V32.6602H81.7232Z" fill="white"/>
    <path d="M28.8555 64.5316C30.1671 61.884 32.7903 59.0328 36.2207 59.542C40.7608 60.2548 45.9064 64.8371 51.0519 65.5499C57.0046 66.3645 57.61 58.6255 63.4618 59.542C65.1769 59.8475 68.7082 61.6804 71.1296 62.5968C73.8537 63.717 76.477 65.6517 78.8984 65.6517C83.7413 65.7535 84.5484 58.32 89.7948 59.1347C94.2341 60.3566 99.8841 63.9206 104.525 65.1426C106.442 65.6517 107.956 64.9389 109.469 63.9206C105.131 73.798 93.8306 63.4115 87.5752 62.3932C82.3288 61.4767 81.5216 67.1791 78.293 68.4011C73.2484 70.3358 66.1859 63.4115 60.7377 62.6987C55.1885 61.9859 53.776 68.8084 49.5385 68.7066C44.393 68.8084 38.4403 63.4115 33.093 62.9023C31.0751 62.5968 30.0662 63.3096 28.8555 64.5316Z" fill="white"/>
    <path d="M28.4508 64.7369C27.341 66.8753 24.4151 69.3192 21.5901 69.0137C15.3347 68.4028 8.07043 60.1546 1.61328 64.7369C3.53025 62.7003 5.34632 59.1363 9.28115 59.951C15.4356 61.1729 21.4892 67.8936 28.4508 64.7369Z" fill="white"/>
    <path d="M0.806641 70.8452C2.11825 68.8086 3.93432 66.0592 7.36468 66.2629C12.4093 66.5683 20.1781 73.4927 25.2227 72.1689C28.6531 71.2525 29.8638 65.55 34.7067 65.9574C39.4487 66.3647 44.5942 70.947 49.7397 71.9653C54.9862 73.0854 56.1969 65.3464 61.8469 66.0592C66.0844 66.5683 71.2299 70.6415 76.0728 71.9653C82.0255 73.4927 82.4291 64.8372 88.8862 65.7537C93.2246 66.3647 98.3702 70.4378 102.91 71.6598C104.726 72.1689 106.542 71.6598 107.955 70.2342C102.507 80.5189 93.6282 70.1324 86.3639 68.8086C79.8058 67.6885 80.9157 75.8348 73.9541 75.0201C71.5326 74.7147 68.8085 73.0854 66.2862 71.9653C63.8647 70.947 60.838 69.1141 58.6183 69.0122C53.7755 68.7067 52.1612 75.4275 47.3183 75.0201C42.2737 74.6128 36.9263 69.5214 31.9826 69.0122C26.6352 68.5031 25.929 75.7329 20.3799 75.3256C16.2433 75.0201 9.9879 70.336 5.85129 69.3177C3.93432 68.8086 1.91646 69.6232 0.806641 70.8452Z" fill="white"/>
    <path d="M22.6 52.8216C22.6 54.2472 21.3893 54.5527 17.959 54.5527H14.9322C11.6027 54.5527 10.2911 54.2472 10.2911 52.4143V49.4612C10.2911 47.6283 11.0982 47.3228 14.9322 47.3228H17.959C21.2884 47.3228 22.6 47.8319 22.6 49.0539H28.3509C28.3509 45.6935 24.7188 44.8789 19.0688 44.8789H9.38305C2.21965 44.8789 0 45.8972 0 49.3594V52.7197C0 55.8764 2.11875 56.8947 8.87858 56.8947H19.6741C26.8375 56.8947 28.4518 55.9783 28.4518 52.8216H22.6Z" fill="#BBBEBF"/>
    <path d="M85.8607 44.8789H73.1482V56.9965H80.5134V48.3411H80.6143L86.7688 56.9965H92.8223L98.775 48.3411H98.8759V56.9965H108.965V44.8789H95.2438L90.6027 51.2941H90.5018L85.8607 44.8789ZM45.5035 44.8789H32.791V56.9965H40.1562V48.3411H40.2571L46.4116 56.9965H52.4651L58.4178 48.3411H58.5187V56.9965H68.608V44.8789H54.8866L50.2455 51.2941H50.1446L45.5035 44.8789Z" fill="#EA2127"/>
    <path d="M22.6 52.8216C22.6 54.2472 21.3893 54.5527 17.959 54.5527H14.9322C11.6027 54.5527 10.2911 54.2472 10.2911 52.4143V49.4612C10.2911 47.6283 11.0982 47.3228 14.9322 47.3228H17.959C21.2884 47.3228 22.6 47.8319 22.6 49.0539H28.3509C28.3509 45.6935 24.7188 44.8789 19.0688 44.8789H9.38305C2.21965 44.8789 0 45.8972 0 49.3594V52.7197C0 55.8764 2.11875 56.8947 8.87858 56.8947H19.6741C26.8375 56.8947 28.4518 55.9783 28.4518 52.8216H22.6Z" fill="#EA2127"/>
</svg>